<?xml version="1.0" encoding="UTF-8" standalone="no"?>
<svg
   xmlns:dc="http://purl.org/dc/elements/1.1/"
   xmlns:cc="http://creativecommons.org/ns#"
   xmlns:rdf="http://www.w3.org/1999/02/22-rdf-syntax-ns#"
   xmlns:svg="http://www.w3.org/2000/svg"
   xmlns="http://www.w3.org/2000/svg"
   xmlns:sodipodi="http://sodipodi.sourceforge.net/DTD/sodipodi-0.dtd"
   xmlns:inkscape="http://www.inkscape.org/namespaces/inkscape"
   stroke-width=".501"
   stroke-linejoin="bevel"
   fill-rule="evenodd"
   overflow="visible"
   viewBox="0 0 600 118.502"
   version="1.1"
   id="svg10"
   sodipodi:docname="IPA-2020-Full-Filled.svg"
   inkscape:version="0.92.5 (2060ec1f9f, 2020-04-08)">
  <metadata
     id="metadata16">
    <rdf:RDF>
      <cc:Work
         rdf:about="">
        <dc:format>image/svg+xml</dc:format>
        <dc:type
           rdf:resource="http://purl.org/dc/dcmitype/StillImage" />
        <dc:title></dc:title>
      </cc:Work>
    </rdf:RDF>
  </metadata>
  <defs
     id="defs14" />
  <sodipodi:namedview
     pagecolor="#ffffff"
     bordercolor="#666666"
     borderopacity="1"
     objecttolerance="10"
     gridtolerance="10"
     guidetolerance="10"
     inkscape:pageopacity="0"
     inkscape:pageshadow="2"
     inkscape:window-width="1920"
     inkscape:window-height="1019"
     id="namedview12"
     showgrid="false"
     inkscape:zoom="4.6666666"
     inkscape:cx="117.68476"
     inkscape:cy="38.437157"
     inkscape:window-x="0"
     inkscape:window-y="25"
     inkscape:window-maximized="1"
     inkscape:current-layer="layer2" />
  <g
     inkscape:groupmode="layer"
     id="layer1"
     inkscape:label="Layer 1" />
  <g
     inkscape:groupmode="layer"
     id="layer2"
     inkscape:label="Layer 2">
    <rect
       style="opacity:0.98999999;fill:#fffffd;fill-opacity:1;stroke:#1f1339;stroke-width:2;stroke-miterlimit:4;stroke-dasharray:8, 2;stroke-dashoffset:0;stroke-opacity:1"
       id="rect819"
       width="71.785721"
       height="65.785721"
       x="31.714287"
       y="24.430569" />
  </g>
  <g
     stroke="none"
     fill="none"
     font-family="Times New Roman"
     font-size="16"
     id="g8">
    <path
       d="M43.111 113.344c-12.487-3.594-23.577-11.717-30.877-22.452-5.642-8.196-8.89-17.912-9.688-27.814v-7.932c.487-5.052 1.395-10.093 3.135-14.872C10.397 26.82 20.417 15.31 33.147 8.873c6.766-3.575 14.303-5.507 21.905-6.167h60.384c-.003 19.628 0 39.249-.003 58.876-.393 11.049-4.234 21.931-10.775 30.843-7.273 9.965-17.875 17.486-29.749 20.9-10.308 3.034-21.484 3.041-31.798.019zm6.346-81.231H34.768c0 18.827-.01 37.647 0 56.474h14.689V32.113zM73.734 69.86c3.088-.075 6.238.092 9.358-.019 3.12-.112 6.198-.506 9.135-1.699 4.043-1.536 7.257-4.961 8.586-9.076 1.47-4.552 1.627-9.537.572-14.189-1.05-4.656-4.333-8.721-8.725-10.622-1.771-.816-3.646-1.347-5.559-1.68-1.92-.33-3.871-.456-5.806-.459-7.413-.006-14.83 0-22.244-.003-.003 18.823 0 37.644-.003 56.471 4.893.006 9.791 0 14.686.003V69.86zm0-25.91c3.16.082 6.443-.289 9.481.779 1.84.591 3.081 2.347 3.358 4.213.355 2.117.349 4.479-.82 6.364-.958 1.53-2.778 2.177-4.477 2.46-2.494.365-5.026.242-7.542.267V43.95z"
       fill="#ef5a29"
       id="path2"
       style="fill:#fe7352;fill-opacity:1" />
    <path
       d="m 123.677,89.78 c 146.343,0.009 292.686,0.009 439.036,0.006 2.676,-0.304 5.466,0.132 8.06,-0.776 2.545,-0.942 4.879,-2.701 6.082,-5.186 1.125,-2.114 1.198,-4.618 0.843,-6.937 -0.441,-2.799 -2.589,-5.019 -5.043,-6.254 -3.999,-1.986 -8.472,-2.66 -12.644,-4.159 -3.053,-1.14 -6.186,-2.592 -8.269,-5.199 -2.056,-2.545 -2.886,-5.891 -2.766,-9.12 -0.151,-3.446 0.744,-7.002 2.83,-9.786 2.585,-3.621 6.992,-5.472 11.296,-6.021 2.661,-0.459 5.4,-0.057 7.967,0.703 4.118,1.295 7.342,4.716 8.922,8.664 1.149,2.699 1.457,5.63 1.765,8.517 -1.784,0.022 -3.566,-0.006 -5.347,0.025 -0.179,-3.166 -0.936,-6.512 -3.16,-8.9 -2.362,-2.758 -6.242,-3.741 -9.754,-3.405 -2.777,0.26 -5.608,1.367 -7.37,3.609 -1.963,2.435 -2.214,5.86 -1.489,8.799 0.989,2.52 3.17,4.462 5.63,5.517 4.146,1.794 8.607,2.683 12.901,4.025 3.427,1.143 6.488,3.53 8.165,6.763 1.866,3.37 2.199,7.401 1.656,11.161 -0.541,4.074 -2.815,7.869 -6.133,10.295 -2.792,2.022 -6.245,2.978 -9.653,3.194 H 123.677 c 0,-1.844 0.013,-3.691 0,-5.535 z M 410.448,77.988 c -3.644,-3.412 -5.466,-8.335 -6.183,-13.176 -0.882,-5.434 -0.361,-11.111 1.584,-16.263 1.825,-4.903 5.573,-9.18 10.533,-11.048 6.902,-2.523 15.579,-1.518 20.703,4.118 4.944,5.089 6.219,12.54 6.219,19.376 -11.391,-0.003 -22.787,-0.003 -34.182,-0.003 0.208,4.2 1.093,8.58 3.729,11.975 2.052,2.658 4.992,4.75 8.36,5.256 3.55,0.424 7.401,0.204 10.482,-1.803 3.22,-2.12 5.065,-5.702 6.083,-9.327 1.762,0.003 3.528,0.003 5.296,0.003 -0.946,4.109 -2.699,8.196 -5.821,11.124 -3.437,3.49 -8.579,4.652 -13.336,4.527 -4.857,0.188 -9.936,-1.32 -13.467,-4.759 z m 57.463,4.149 c -4.464,-1.149 -8.532,-3.917 -11.064,-7.787 -4.059,-6.076 -4.916,-13.833 -3.559,-20.885 1.03,-5.208 3.716,-10.275 8.079,-13.432 5.617,-4.201 13.418,-4.879 19.901,-2.476 3.038,1.16 5.808,3.185 7.555,5.956 1.451,2.337 2.25,5.032 2.598,7.747 a 202.043,202.043 0 0 0 -5.337,-0.009 c -0.7,-2.827 -1.894,-5.651 -4.061,-7.666 -2.212,-2.252 -5.521,-2.984 -8.58,-2.861 -3.802,-0.17 -7.555,1.499 -10.15,4.247 -3.594,3.697 -5.127,8.947 -5.3,13.999 -0.062,4.432 0.953,8.964 3.355,12.738 2.175,3.279 5.586,5.911 9.541,6.515 2.717,0.346 5.616,0.263 8.098,-1.034 4.289,-2.114 7.11,-6.691 7.443,-11.413 1.781,0.022 3.562,-0.009 5.346,0.032 -0.632,4.474 -2.277,9.01 -5.598,12.198 -2.729,2.834 -6.59,4.369 -10.464,4.709 -2.613,0.101 -5.262,0.123 -7.803,-0.578 z M 379.465,25.362 c -7.129,0.01 -14.253,0 -21.382,0.003 v -4.784 h 48.466 a 364.38,364.38 0 0 0 0.003,4.791 c -7.13,-0.019 -14.259,0.003 -21.386,-0.01 0.016,18.751 -0.006,37.509 0.012,56.266 h -5.726 c 0.019,-18.757 -0.003,-37.515 0.013,-56.266 z m 124.139,-4.781 h 5.33 c 0.033,8.294 -0.068,16.599 0.054,24.899 1.207,-3.063 3.446,-5.717 6.39,-7.235 3.295,-1.872 7.247,-2.368 10.966,-1.872 4.04,0.333 8.3,2.014 10.556,5.551 2.061,3.112 2.369,6.97 2.595,10.596 0.025,9.704 -0.013,19.401 0.015,29.099 h -5.349 c 0.012,-6.321 0.003,-12.639 0.006,-18.955 -0.079,-4.455 0.263,-8.944 -0.456,-13.364 -0.339,-2.07 -1.175,-4.113 -2.648,-5.636 -2.042,-2.205 -5.177,-3.088 -8.111,-2.94 -3.343,-0.148 -6.802,0.971 -9.226,3.32 -3.173,2.899 -4.616,7.276 -4.792,11.476 0.003,8.701 -0.012,17.407 0.007,26.108 h -5.347 c 0.016,-20.353 0.01,-40.703 0.01,-61.047 z m -69.108,25.534 c -2.454,-3.274 -6.396,-5.602 -10.559,-5.391 -3.352,-0.201 -6.682,1.124 -9.107,3.411 -3.455,3.148 -5.023,7.804 -5.651,12.318 h 28.779 c -0.239,-3.656 -1.191,-7.402 -3.462,-10.338 z"
       id="path4"
       style="fill:#1f1339;fill-opacity:1"
       inkscape:connector-curvature="0" />
    <path
       d="m 246.96,82.662 c -5.351,-0.402 -10.647,-2.589 -14.348,-6.528 -3.7,-3.971 -5.736,-9.377 -5.852,-14.781 -0.293,-6.433 1.316,-13.281 5.714,-18.166 3.619,-4.131 8.994,-6.553 14.444,-6.849 2.994,-0.395 6.039,-0.015 8.972,0.641 4.54,1.018 8.812,3.6 11.46,7.486 1.734,2.466 2.526,5.488 2.736,8.469 h -11.839 c -0.377,-2.532 -1.584,-5.12 -3.889,-6.421 -2.799,-1.48 -6.309,-1.653 -9.212,-0.361 -3.219,1.674 -5.158,5.105 -5.836,8.569 -0.748,4.141 -0.726,8.567 0.798,12.536 1.106,3.012 3.603,5.682 6.845,6.307 2.667,0.33 5.594,0.144 7.841,-1.486 2.321,-1.762 3.434,-4.639 3.923,-7.426 3.88,0.013 7.759,0.022 11.642,-0.003 -0.646,4.895 -2.609,9.827 -6.424,13.096 -4.608,4.015 -11.008,5.382 -16.975,4.917 z m -77.298,-1.047 c -1.606,-4.545 -3.076,-9.138 -4.675,-13.69 h -22.895 c -1.602,4.568 -3.22,9.12 -4.825,13.69 -4.485,0.013 -8.981,0.004 -13.47,0.004 7.693,-20.344 15.433,-40.676 23.063,-61.038 4.613,0.006 9.224,0.003 13.836,0.003 7.639,20.341 15.232,40.697 22.857,61.053 -4.634,-0.037 -9.264,-0.006 -13.891,-0.022 z M 191.94,37.459 c 3.839,0.02 7.675,0.004 11.523,0.004 0.025,2.795 -0.076,5.591 0.069,8.381 0.974,-1.728 1.845,-3.553 3.293,-4.948 3.496,-3.493 8.764,-5.509 13.661,-4.312 -0.006,3.763 -0.006,7.529 0,11.29 -3.679,-0.651 -7.794,-0.798 -11.086,1.25 -2.331,1.335 -3.81,3.782 -4.561,6.307 -0.936,3.695 -0.823,7.537 -0.817,11.32 0.003,4.957 -0.006,9.911 0.007,14.877 h -12.101 c 0.021,-14.726 0.006,-29.448 0.012,-44.169 z m 89.634,-16.878 h 12.083 c 0.043,7.741 -0.092,15.481 0.068,23.218 1.244,-1.59 2.392,-3.304 4.04,-4.511 3.466,-2.531 7.957,-3.562 12.186,-2.915 4.141,0.286 8.4,2.193 10.602,5.85 2.139,3.662 2.447,8.041 2.548,12.182 -0.003,9.072 -0.009,18.145 0.003,27.217 h -12.098 c 0.016,-6.575 0.003,-13.154 0.007,-19.728 -0.029,-3.421 0.182,-6.874 -0.503,-10.244 -0.461,-1.97 -1.35,-4.112 -3.27,-5.049 -1.69,-1.011 -3.729,-0.841 -5.614,-0.794 -2.535,0.157 -5.051,1.494 -6.283,3.769 -1.426,2.595 -1.488,5.645 -1.68,8.526 -0.006,7.841 -0.009,15.682 0.003,23.526 h -12.101 c 0.022,-20.353 0.009,-40.703 0.009,-61.047 z m 55.506,16.878 h 12.082 c 0,14.721 -0.003,29.443 0.004,44.169 H 337.071 C 337.09,66.905 337.077,52.18 337.08,37.459 Z M 153.681,35.264 c -2.748,7.586 -5.432,15.195 -8.111,22.809 h 15.924 C 158.965,50.443 156.31,42.86 153.681,35.264 Z M 337.08,20.581 h 12.082 c -0.003,3.282 -0.003,6.566 0,9.855 H 337.08 Z"
       id="path6"
       style="fill:#1f1339;fill-opacity:1"
       inkscape:connector-curvature="0" />
  </g>
</svg>
